<?xml version="1.0" encoding="UTF-8" standalone="no"?><!DOCTYPE svg PUBLIC "-//W3C//DTD SVG 1.1//EN" "http://www.w3.org/Graphics/SVG/1.1/DTD/svg11.dtd"><svg width="100%" height="100%" viewBox="0 0 1536 1536" version="1.1" xmlns="http://www.w3.org/2000/svg" xmlns:xlink="http://www.w3.org/1999/xlink" xml:space="preserve" xmlns:serif="http://www.serif.com/" style="fill-rule:evenodd;clip-rule:evenodd;stroke-linejoin:round;stroke-miterlimit:2;"><rect x="0" y="0" width="1536" height="1536" style="fill:#00182d;"/><g id="logo"><g id="ehexagon"><path id="hexagon" d="M325.002,847.079l182.569,-316.23l365.159,0l182.579,316.23l-182.579,316.23l-365.159,0l-182.569,-316.23Z" style="fill:#00549e;fill-rule:nonzero;"/><path id="e" d="M631.076,844.874c20.244,18.415 43.807,26.777 70.688,25.087c26.881,-1.69 49.277,-12.943 67.188,-33.757l49,44.573c-29.715,34.533 -67.117,53.217 -112.205,56.052c-45.092,2.836 -84.431,-11.023 -118.019,-41.575c-33.587,-30.552 -51.759,-69.01 -54.517,-115.374c-2.758,-46.362 10.721,-86.808 40.436,-121.338c29.715,-34.533 67.117,-53.217 112.205,-56.052c45.092,-2.836 84.431,11.023 118.019,41.575c43.735,40.205 61.703,89.863 53.904,148.971l-252.344,15.868c6.052,13.938 14.598,25.929 25.64,35.974l0.004,-0.004Zm129.443,-150.428c-20.244,-18.415 -43.807,-26.777 -70.688,-25.087c-26.881,1.69 -49.277,12.943 -67.188,33.757c-10.15,12.272 -17.212,25.245 -21.185,38.918l184.699,-11.616c-5.131,-13.101 -13.678,-25.092 -25.64,-35.974l0.002,0.001Z" style="fill:#f7f7f7;fill-rule:nonzero;"/></g><g id="ears"><g id="left"><path id="lefttop" d="M691.728,359.544c13.919,-20.343 47.109,-72.805 79.229,-72.805c39.614,0 48.18,92.077 49.25,149.892l-128.479,-77.087Z" style="fill:#fdbe2f;"/><path id="leftbot" d="M626.418,476.246l58.886,-5.353c51.392,-76.017 69.593,-71.734 77.087,6.424l58.886,11.777c-0.357,-17.487 -0.714,-34.975 -1.071,-52.462c-23.554,-16.06 -36.402,-29.978 -57.816,-47.109c-14.989,-12.848 -42.826,-26.766 -70.663,-29.978c-24.625,39.614 -40.685,66.381 -65.31,116.702l-0,0Z" style="fill:#fff;"/></g><g id="right"><path id="righttop" d="M1086.802,559.757c63.169,-8.565 124.196,-2.141 124.196,37.473c0,46.038 -80.299,112.419 -95.289,127.408c-19.272,-43.897 -10.707,-112.419 -28.908,-164.881Z" style="fill:#fdbe2f;"/><path d="M966.888,586.524l39.614,40.685c82.441,-5.353 110.278,12.848 48.18,69.593l29.978,54.604c13.919,-11.777 19.272,-16.06 31.049,-26.766c-12.848,-36.402 10.707,-39.614 10.707,-86.723c0,-20.343 -3.212,-42.826 -39.614,-78.158c-31.049,3.212 -67.452,9.636 -119.914,26.766Z" style="fill:#fff;"/></g></g><g><path d="M579.566,1159.326l17.131,0l0,65.31l-17.131,0l0,-65.31Zm0,-24.625l44.968,0l0,85.653c-11.777,38.544 -61.028,38.544 -72.805,0l0,-179.871c12.848,-38.544 61.028,-38.544 72.805,0l0,76.017l-26.766,0l0,-80.299l-18.201,0l0,98.501Z" style="fill:#fff;"/><path d="M643.806,1087.592l27.837,0l0,-80.299l18.201,0l0,98.501l-46.038,0l0,113.49l72.805,0l0,-71.734l-26.766,0l0,47.109l-18.201,0l0,-64.24l44.968,0l0,-118.843c-10.707,-37.473 -61.028,-38.544 -72.805,0l0,76.017Z" style="fill:#fff;"/><path d="M781.921,1248.191l-26.766,0l0,-211.99l-18.201,0l0,-24.625l18.201,0c20.343,5.353 26.766,22.484 26.766,31.049l0,205.567Z" style="fill:#fff;"/></g></g></svg>