<?xml version="1.0" encoding="UTF-8" standalone="no"?><!DOCTYPE svg PUBLIC "-//W3C//DTD SVG 1.1//EN" "http://www.w3.org/Graphics/SVG/1.1/DTD/svg11.dtd"><svg width="100%" height="100%" viewBox="0 0 1536 1536" version="1.1" xmlns="http://www.w3.org/2000/svg" xmlns:xlink="http://www.w3.org/1999/xlink" xml:space="preserve" xmlns:serif="http://www.serif.com/" style="fill-rule:evenodd;clip-rule:evenodd;stroke-linejoin:round;stroke-miterlimit:2;"><rect x="0" y="0" width="1536" height="1536" style="fill:#f9af3b;"/><g><path d="M1149.226,714.195c-18.776,-3.015 -12.676,-14.674 -1.868,-15.883c38.095,-4.263 62.61,-18.882 72.896,-8.157c23.641,24.649 -65.029,24.079 -71.028,24.04Z" style="fill:#fff;"/><path d="M1073.67,1113.394c50.224,19.277 24.644,72.263 0.582,44.947c-6.393,-7.257 -12.282,-34.643 -12.735,-38.326c-0.85,-6.909 11.046,-6.646 12.153,-6.621Z" style="fill:#fff;"/><path d="M385.524,583.534c27.752,3.788 27.816,34.755 20.032,39.326c-28.391,16.673 -49.097,-32.172 -20.032,-39.326Z" style="fill:#fff;"/><path d="M434.15,969.331c1.426,-2.918 11.691,-23.918 32.325,-24.569c28.481,-0.899 -35.444,75.903 -32.325,24.569Z" style="fill:#fff;"/><path d="M862.966,360.026c0.434,-2.124 4.813,-23.546 22.964,-14.379c13.389,6.762 8.727,19.977 -0.136,24.918c-15.322,8.541 -21.532,6.847 -22.828,-10.539Z" style="fill:#fff;"/><path d="M1148.43,963.581c0.585,-1.99 5.515,-18.744 25.774,-2.78c19.039,15.003 -23.01,36.882 -25.774,2.78Z" style="fill:#fff;"/><path d="M1094.098,436.258c0.372,0.011 10.623,-1.697 12.763,4.747c1.681,5.062 -1.605,13.744 -7.718,17.795c-18.701,12.394 -28.637,-12.633 -5.045,-22.543Z" style="fill:#fff;"/><path d="M790.988,1129.476c-9.519,16.125 -25.151,7.588 -16.465,-9.051c0.696,-1.332 22.956,-29.267 16.465,9.051Z" style="fill:#fff;"/><path d="M326.679,1069.323c-25.939,-5.279 -13.216,-26.316 1.616,-20.563c6.104,2.368 15.082,16.519 -1.616,20.563Z" style="fill:#fff;"/><path d="M618.243,1079.57c1.931,-27.306 8.732,-47.05 2.565,-60.598c-13.602,-29.881 -36.116,25.004 -54.471,-2.275c-18.146,-26.967 -19.404,7.599 -80.038,41.863c-52.294,29.551 -51.33,33.246 -73.056,89.149c-19.426,49.984 -54.139,32.917 -60.128,25.109c-23.708,-30.906 27.405,-76.445 40.721,-92.17c65.823,-77.731 78.103,-67.95 103.464,-88.187c20.585,-16.426 34.429,-23.315 11.992,-36.944c-8.131,-4.939 4.072,-17.236 -2.433,-18.793c-27.828,-6.661 -4.894,-27.285 -23.589,-39.666c-34.347,-22.747 -67.5,47.292 -113.825,21.518c-14.744,-8.203 -38.396,-60.565 52.839,-67.746c73.589,-5.792 50.156,-35.66 46.041,-38.093c-42.372,-25.045 -120.241,-14.168 -130.64,-12.715c-30.701,4.289 -23.689,-48.706 5.635,-39.256c45.902,14.792 60.394,2.821 108.542,-4.252c60.813,-8.933 17.324,-47.218 26.009,-59.482c20.227,-28.561 6.71,-42.209 -4.943,-68.737c-24.821,-56.509 45.044,-29.449 55.787,-49.473c12.966,-24.167 -25.55,-52.327 -29.793,-56.076c-60.387,-53.354 -137.059,-71.059 -94.915,-107.43c49.192,-42.454 147.098,80.378 150.617,81.467c37.593,11.637 22.76,29.717 41.098,41.185c24.455,15.293 23.028,-15.501 22.921,-17.821c-1.408,-30.385 26.791,-13.461 29.213,-29.56c2.67,-17.75 -77.744,-127.482 -34.052,-131.746c39.097,-3.816 43.582,106.794 67.786,98.187c25.886,-9.205 -55.91,-141.318 -43.697,-157.564c19.662,-26.153 31.756,45.761 38.27,62.438c13.353,34.183 62.813,110.206 77.115,98.948c9.341,-7.353 9.115,-7.521 20.715,-9.978c36.876,-7.811 -11.916,-149.869 16.581,-162.166c43.22,-18.651 0.065,100.854 37.1,125.737c18.796,12.628 110.207,-62.511 111.051,-13.931c0.401,23.097 -17.599,40.664 -18.905,42.713c-10.025,15.721 43.551,64.302 52.89,60.667c20.488,-7.975 26.025,-7.603 34.685,16.295c6.635,18.309 40.982,-24.351 55.468,-38.578c11.068,-10.869 10.524,9.437 -13.74,50.948c-42.46,72.64 26.647,51.788 57.348,71.003c24.36,15.247 -41.054,40.365 -1.014,59.313c17.883,8.463 15.805,12.015 13.306,26.697c-7.183,42.206 53.9,54.55 18.809,83.763c-30.442,25.343 -38.24,28.994 -22.289,65.513c5.785,13.245 -6.849,21.665 -11.618,27.591c-27.486,34.158 29.125,29.065 38.537,60.297c9.915,32.897 -55.554,4.111 -59.306,5.356c-21.652,7.184 24.116,32.677 22.818,44.504c-2.69,24.52 -44.547,-12.326 -44.975,-12.484c-22.669,-8.339 31.626,56.179 21.453,74.474c-16.292,29.299 -49.197,-48.05 -60.086,-56.347c-19.753,-15.05 -17.05,26.626 -18.445,31.022c-4.678,14.737 -19.522,1.635 -22.18,16.569c-9.887,55.546 37.298,113.862 45.647,127.428c31.495,51.169 0.137,72.916 -17.818,62.279c-25.844,-15.31 -48.316,-184.723 -110.4,-181.235c-58.861,3.307 16.555,113.733 -23.713,122.919c-36.411,8.306 -25.509,-42.574 -24.98,-57.742c1.218,-34.888 -32.323,-61.247 -52.461,-61.419c-63.875,-0.545 -66.248,95.207 -69.557,127.743c-9.095,89.411 -32.067,81.674 -36.914,76.873c-17.403,-17.239 -9.309,-46.863 -6.451,-67.828c10.902,-79.979 29.707,-111.736 -16.353,-137.133c-16.655,-9.183 -12.694,4.335 -13.738,23.164c-2.204,39.741 -31.469,46.659 -36.501,14.694Zm290.889,-139.971c-41.144,153.875 -146.802,35.373 -171.994,25.564c-44.256,-17.232 -182.269,29.868 -157.63,-97.104c14.411,-74.266 86.332,-65.691 111.066,-92.546c43.595,-47.332 131.321,-79.843 163.171,36.996c18.471,67.761 55.701,55.28 55.386,127.089Zm-79.243,-380.825c-5.155,112.171 -89.267,174.042 -140.244,108.189c-58.618,-75.724 70.957,-206.468 114.878,-173.554c29.096,21.804 24.294,52.223 25.366,65.365Zm0.001,113.999c-0.018,-7.332 -0.555,-14.657 -0.573,-21.989c-0.226,-90.49 87.883,-186.896 127.746,-77.009c39.043,107.629 -29.204,190.503 -93.192,158.219c-31.895,-16.092 -33.144,-54.909 -33.981,-59.22Zm-160.101,62.761c-18.722,75.589 -100.957,54.013 -116.394,25.446c-40.996,-75.87 68.352,-146.044 96.319,-109.569c25.198,32.865 20.763,77.239 20.075,84.124Zm220.768,90.09c1.35,-8.118 8.942,-53.759 62.207,-81.924c43.85,-23.187 63.812,53.097 63.195,83.738c-1.844,91.551 -121.538,77.225 -125.402,-1.814Zm-252.105,-230.168c-0.503,23.567 -26.012,22.985 -20.4,4.013c2.205,-7.455 16.13,-18.269 20.4,-4.013Zm283.753,-104.618c3.861,33.063 -14.917,16.432 -15.417,14.42c-4.137,-16.658 5.17,-33.919 15.417,-14.42Zm-115.676,-24.255c0.955,-1.231 10.943,-14.108 16.579,-10.221c12.696,8.759 -22.935,43.372 -16.579,10.221Zm203.846,239.393c-5.387,31.48 -16.666,6.877 -16.787,5.47c-1.14,-13.295 13.989,-27.098 16.787,-5.47Z" style="fill:#fff;"/><path d="M1116.115,568.963c25.375,5.344 0.312,28.415 -8.622,15.22c-8.563,-12.647 7.238,-15.013 8.622,-15.22Z" style="fill:#fff;"/><path d="M443.405,571.675c-10.376,24.874 -16.174,4.855 -15.937,3.57c1.295,-7.023 12.763,-16.088 15.937,-3.57Z" style="fill:#fff;"/><path d="M1159.441,582.262c-7.204,19.996 -20.756,2.011 -13.549,-5.128c9.275,-9.189 13.218,4.018 13.549,5.128Z" style="fill:#fff;"/></g></svg>