<?xml version="1.0" encoding="UTF-8" standalone="no"?><!DOCTYPE svg PUBLIC "-//W3C//DTD SVG 1.1//EN" "http://www.w3.org/Graphics/SVG/1.1/DTD/svg11.dtd"><svg width="100%" height="100%" viewBox="0 0 1536 1536" version="1.1" xmlns="http://www.w3.org/2000/svg" xmlns:xlink="http://www.w3.org/1999/xlink" xml:space="preserve" xmlns:serif="http://www.serif.com/" style="fill-rule:evenodd;clip-rule:evenodd;stroke-linejoin:round;stroke-miterlimit:2;"><rect x="0" y="0" width="1536" height="1536" style="fill:#e6e6e6;"/><path d="M698.757,969.919c-115.699,-14.024 -197.213,-97.292 -197.213,-205.101c0,-43.824 15.777,-91.156 42.072,-122.709c-11.394,-28.924 -9.641,-90.279 3.506,-115.698c35.06,-4.382 82.391,14.024 110.439,39.442c33.307,-10.518 68.366,-15.776 111.315,-15.776c42.949,0 78.009,5.259 109.562,14.9c27.171,-24.542 75.379,-42.948 110.439,-38.566c12.271,23.666 14.024,85.02 2.629,114.821c28.048,33.307 42.948,78.009 42.948,123.586c0,107.809 -81.514,189.324 -198.965,204.225c29.801,19.282 49.961,61.355 49.961,109.562l0,91.156c0,26.295 21.913,41.195 48.208,30.677c158.647,-60.478 283.109,-219.125 283.109,-415.46c0,-248.049 -201.594,-450.52 -449.644,-450.52c-248.049,-0 -447.891,202.471 -447.891,450.52c-0,194.583 123.586,355.859 290.121,416.337c23.666,8.765 46.455,-7.012 46.455,-30.677l0,-70.12c-12.271,5.26 -28.048,8.766 -42.072,8.766c-57.849,0 -92.032,-31.554 -116.574,-90.28c-9.641,-23.665 -20.159,-37.689 -40.319,-40.319c-10.518,-0.876 -14.024,-5.259 -14.024,-10.518c0,-10.519 17.53,-18.407 35.061,-18.407c25.419,0 47.33,15.777 70.119,48.208c17.53,25.419 35.936,36.813 57.849,36.813c21.913,0 35.936,-7.888 56.096,-28.048c14.901,-14.901 26.295,-28.048 36.814,-36.813Z" style="fill-rule:nonzero;"/></svg>