<?xml version="1.0" encoding="UTF-8" standalone="no"?><!DOCTYPE svg PUBLIC "-//W3C//DTD SVG 1.1//EN" "http://www.w3.org/Graphics/SVG/1.1/DTD/svg11.dtd"><svg width="100%" height="100%" viewBox="0 0 1536 1536" version="1.1" xmlns="http://www.w3.org/2000/svg" xmlns:xlink="http://www.w3.org/1999/xlink" xml:space="preserve" xmlns:serif="http://www.serif.com/" style="fill-rule:evenodd;clip-rule:evenodd;stroke-linejoin:round;stroke-miterlimit:2;"><g><g><g id="Layer_1-2"><g><g><g><path d="M768,295.836c153.856,0 171.822,0.461 232.627,3.225c56.199,2.764 86.602,11.977 106.87,19.808c26.718,10.595 46.065,23.032 66.333,43.301c20.269,20.269 32.706,39.155 42.84,66.333c7.831,20.269 17.505,50.671 19.808,106.87c2.764,60.806 3.685,78.771 3.685,232.627c0,153.856 -0.921,171.822 -3.685,232.627c-2.303,56.199 -11.977,86.602 -19.808,106.87c-10.134,26.718 -22.572,46.065 -42.84,66.333c-20.269,20.269 -39.616,32.706 -66.333,42.84c-20.269,7.831 -50.671,17.505 -106.87,19.808c-60.806,2.764 -78.771,3.685 -232.627,3.685c-153.856,0 -171.822,-0.921 -232.627,-3.685c-56.199,-2.303 -86.602,-11.977 -106.87,-19.808c-27.178,-10.134 -46.065,-22.572 -66.333,-42.84c-20.269,-20.269 -32.706,-39.616 -42.84,-66.333c-8.292,-20.269 -17.505,-50.671 -20.269,-106.87c-2.764,-60.806 -3.225,-78.771 -3.225,-232.627c0,-153.856 0.461,-171.822 3.225,-232.627c2.764,-56.199 11.977,-86.602 20.269,-106.87c10.134,-27.178 22.572,-46.065 42.84,-66.333c20.269,-20.269 39.155,-32.706 66.333,-43.301c20.269,-7.831 50.671,-17.044 106.87,-19.808c60.806,-2.764 78.771,-3.225 232.627,-3.225Zm0,-103.646c-156.62,0 -175.967,0.461 -237.234,3.685c-61.266,2.764 -103.185,12.437 -140.037,26.718c-37.773,14.741 -70.018,34.088 -101.803,66.333c-32.245,31.785 -51.593,64.03 -66.333,101.803c-14.28,36.852 -23.954,78.771 -26.718,140.037c-3.225,61.266 -3.685,80.613 -3.685,237.234c0,156.16 0.461,175.967 3.685,237.234c2.764,61.266 12.437,103.185 26.718,140.037c14.741,37.773 34.088,70.018 66.333,101.803c31.785,32.245 64.03,51.593 101.803,66.333c36.852,14.28 78.771,23.954 140.037,26.718c61.266,2.764 80.613,3.685 237.234,3.685c156.16,0 175.967,-0.921 237.234,-3.685c61.266,-2.764 103.185,-12.437 140.037,-26.718c37.773,-14.741 70.018,-34.088 101.803,-66.333c32.245,-31.785 51.593,-64.03 66.333,-101.803c14.28,-36.852 23.954,-78.771 26.718,-140.037c2.764,-61.266 3.685,-81.074 3.685,-237.234c0,-156.62 -0.921,-175.967 -3.685,-237.234c-2.764,-61.266 -12.437,-103.185 -26.718,-140.037c-14.741,-37.773 -34.088,-70.018 -66.333,-101.803c-31.785,-32.245 -64.03,-51.593 -101.803,-66.333c-36.852,-14.28 -78.771,-23.954 -140.037,-26.718c-61.266,-3.225 -81.074,-3.685 -237.234,-3.685Zm0,280.074c-163.53,0 -295.736,132.206 -295.736,295.736c0,163.069 132.206,295.736 295.736,295.736c163.069,0 295.736,-132.667 295.736,-295.736c0,-163.53 -132.667,-295.736 -295.736,-295.736Zm0,487.826c-105.949,0 -192.09,-86.141 -192.09,-192.09c0,-105.949 86.141,-192.09 192.09,-192.09c105.949,0 192.09,86.141 192.09,192.09c0,105.949 -86.141,192.09 -192.09,192.09Zm307.252,-568.439c-38.234,0 -69.097,30.863 -69.097,69.097c0,38.234 30.863,69.097 69.097,69.097c38.234,0 69.097,-30.863 69.097,-69.097c0,-38.234 -30.863,-69.097 -69.097,-69.097Z" style="fill:#fff;"/></g></g><g><path d="M528.98,196.217c-61.036,3.455 -102.494,12.668 -139.346,26.487c-38.004,14.971 -70.249,34.549 -101.343,66.794c-32.245,32.245 -51.823,64.491 -66.794,102.494c-13.819,36.852 -23.032,78.31 -26.487,139.346c-2.303,62.188 -3.455,81.765 -2.303,237.234c0,156.621 0,176.198 3.455,238.386c3.455,61.036 12.668,102.494 26.487,139.346c14.971,38.004 34.549,70.249 66.794,101.343c32.245,32.245 64.491,51.823 102.494,66.794c36.852,13.819 78.31,24.184 139.346,26.487c62.188,2.303 81.765,3.455 237.234,2.303c156.621,0 176.198,0 238.386,-3.455c61.036,-2.303 102.494,-12.668 139.346,-26.487c38.004,-14.971 70.249,-34.549 101.343,-66.794c32.245,-32.245 51.823,-64.491 66.794,-102.494c13.819,-36.852 24.184,-78.31 26.487,-139.346c2.303,-62.188 3.455,-81.765 2.303,-237.234c0,-156.621 0,-176.198 -3.455,-238.386c-3.455,-61.036 -12.668,-102.494 -26.487,-139.346c-14.971,-38.004 -34.549,-70.249 -66.794,-101.343c-32.245,-32.245 -64.491,-51.823 -102.494,-66.794c-36.852,-13.819 -78.31,-24.184 -139.346,-26.487c-62.188,-2.303 -81.765,-3.455 -237.234,-2.303c-156.621,0 -176.198,0 -238.386,3.455m6.91,1041.067c-55.278,-2.303 -86.372,-11.516 -107.101,-19.578c-26.487,-10.365 -46.065,-23.032 -65.643,-42.61c-20.729,-20.729 -33.397,-40.307 -43.762,-66.794c-8.061,-19.578 -17.274,-50.671 -19.578,-107.101c-3.455,-59.884 -3.455,-78.31 -3.455,-232.628c-1.152,-153.166 0,-171.592 2.303,-232.628c2.303,-55.278 11.516,-86.372 19.578,-105.949c10.365,-27.639 23.032,-46.065 42.61,-66.794c20.729,-20.729 40.307,-32.245 66.794,-43.762c20.729,-6.91 50.671,-17.274 107.101,-19.578c59.884,-2.303 78.31,-3.455 232.628,-3.455c153.166,-1.152 171.592,0 232.628,2.303c55.278,2.303 86.372,11.516 107.101,19.578c26.487,10.365 46.065,23.032 65.643,43.762c20.729,19.578 33.397,39.155 43.762,65.643c8.061,20.729 17.274,50.671 19.578,107.101c3.455,61.036 3.455,78.31 3.455,232.628c1.152,153.166 0,171.592 -2.303,232.628c-2.303,56.43 -11.516,86.372 -19.578,107.101c-10.365,26.487 -23.032,46.065 -42.61,65.643c-20.729,20.729 -40.307,33.397 -66.794,43.762c-20.729,8.061 -50.671,17.274 -107.101,19.578c-59.884,3.455 -78.31,3.455 -232.628,3.455c-153.166,1.152 -171.592,0 -232.628,-2.303m469.862,-777.346c0,38.004 31.094,69.097 69.097,69.097c38.004,0 69.097,-31.094 69.097,-69.097c0,-38.004 -31.094,-69.097 -69.097,-69.097c-38.004,0 -69.097,31.094 -69.097,69.097m-533.202,308.635c-0,163.53 132.437,294.816 295.967,294.816c163.53,0 295.967,-132.437 294.816,-295.967c0,-163.53 -132.437,-295.967 -295.967,-294.816c-163.53,0 -294.816,132.437 -294.816,295.967m103.646,0l0,-1.152c0,-104.798 86.372,-191.169 191.169,-191.169c105.949,0 192.321,86.372 192.321,191.169c0,105.949 -86.372,192.321 -191.169,192.321l-1.152,0c-104.798,0 -191.169,-86.372 -191.169,-191.169" style="fill:#ff0076;fill-rule:nonzero;"/></g></g></g></g></g></svg>