<?xml version="1.0" encoding="UTF-8" standalone="no"?><!DOCTYPE svg PUBLIC "-//W3C//DTD SVG 1.1//EN" "http://www.w3.org/Graphics/SVG/1.1/DTD/svg11.dtd"><svg width="100%" height="100%" viewBox="0 0 1536 1536" version="1.1" xmlns="http://www.w3.org/2000/svg" xmlns:xlink="http://www.w3.org/1999/xlink" xml:space="preserve" xmlns:serif="http://www.serif.com/" style="fill-rule:evenodd;clip-rule:evenodd;stroke-linejoin:round;stroke-miterlimit:2;"><rect x="0" y="0" width="1536" height="1536" style="fill:#ff4500;"/><g><g><circle cx="1043.014" cy="751.711" r="113.263" style="fill:url(#_Radial1);"/><circle cx="492.986" cy="751.711" r="113.263" style="fill:url(#_Radial2);"/><ellipse cx="768.379" cy="848.686" rx="323.122" ry="242.436" style="fill:url(#_Radial3);"/><path d="M672.541,825.2c-1.894,40.911 -29.168,56.063 -60.988,56.063c-31.82,0 -56.063,-21.213 -54.169,-62.124c1.894,-40.911 29.168,-68.185 60.988,-68.185c31.82,0 56.063,33.335 54.169,74.246Z" style="fill:#842123;fill-rule:nonzero;"/><path d="M978.617,819.139c1.894,40.911 -22.35,62.124 -54.169,62.124c-31.82,0 -59.094,-14.773 -60.988,-56.063c-1.894,-40.911 22.35,-74.246 54.169,-74.246c31.82,0 59.094,26.895 60.988,68.185Z" style="fill:#842123;fill-rule:nonzero;"/><path d="M863.838,828.988c1.894,38.259 27.274,52.275 56.821,52.275c29.547,0 52.275,-20.834 50.76,-59.473c-1.894,-38.259 -27.274,-63.64 -56.821,-63.64c-29.547,0 -52.654,32.199 -50.76,70.837Z" style="fill:url(#_Radial4);fill-rule:nonzero;"/><path d="M672.541,828.988c-1.894,38.259 -27.274,52.275 -56.821,52.275c-29.547,0 -52.275,-20.834 -50.381,-59.473c1.894,-38.259 27.274,-63.64 56.821,-63.64c29.547,0 52.275,32.199 50.381,70.837Z" style="fill:url(#_Radial5);fill-rule:nonzero;"/><path d="M768.379,908.537c-40.154,0 -78.413,1.894 -114.021,5.303c-6.061,0.758 -9.849,6.819 -7.576,12.122c19.698,46.593 66.67,79.549 121.597,79.549c54.927,0 101.52,-32.577 121.597,-79.549c2.273,-5.682 -1.515,-11.743 -7.576,-12.122c-35.608,-3.409 -73.867,-5.303 -114.021,-5.303Z" style="fill:#bbcfda;fill-rule:nonzero;"/><path d="M768.379,917.629c-40.154,0 -78.413,1.894 -113.642,5.682c-6.061,0.758 -9.849,6.819 -7.576,12.501c19.698,47.351 66.67,80.686 121.218,80.686c54.548,0 101.52,-33.335 121.218,-80.686c2.273,-5.682 -1.515,-11.743 -7.576,-12.501c-35.608,-3.788 -73.867,-5.682 -113.642,-5.682Z" style="fill:#fff;fill-rule:nonzero;"/><path d="M768.379,912.704c-39.396,0 -76.898,1.894 -111.748,5.303c-6.061,0.758 -9.849,6.819 -7.576,12.122c19.698,46.593 65.534,79.549 119.324,79.549c53.791,0 99.626,-32.577 119.324,-79.549c2.273,-5.682 -1.515,-11.743 -7.576,-12.122c-34.85,-3.03 -72.352,-5.303 -111.748,-5.303Z" style="fill:url(#_Radial6);fill-rule:nonzero;"/><circle cx="945.282" cy="493.365" r="80.307" style="fill:url(#_Radial7);"/><path d="M767.242,616.477c-9.47,0 -17.425,-4.167 -17.425,-10.228c0,-71.973 58.336,-130.31 130.31,-130.31c9.47,0 17.425,7.955 17.425,17.425c0,9.47 -7.955,17.425 -17.425,17.425c-52.654,0 -95.459,42.805 -95.459,95.459c0,6.44 -7.955,10.228 -17.425,10.228Z" style="fill:url(#_Radial8);fill-rule:nonzero;"/><path d="M651.706,847.928c0,14.773 -15.91,21.592 -35.229,21.592c-19.319,0 -35.229,-6.819 -35.229,-21.592c0,-14.773 15.91,-26.895 35.229,-26.895c19.319,0 35.229,11.743 35.229,26.895Z" style="fill:#ff6101;fill-rule:nonzero;"/><path d="M955.509,847.928c0,14.773 -15.91,21.592 -35.229,21.592c-19.319,0 -35.229,-6.819 -35.229,-21.592c0,-14.773 15.91,-26.895 35.229,-26.895c19.319,0 35.229,11.743 35.229,26.895Z" style="fill:#ff6101;fill-rule:nonzero;"/><ellipse cx="640.721" cy="793.759" rx="12.501" ry="13.637" style="fill:#ffc49c;"/><ellipse cx="939.6" cy="793.759" rx="12.501" ry="13.637" style="fill:#ffc49c;"/></g></g><defs><radialGradient id="_Radial1" cx="0" cy="0" r="1" gradientUnits="userSpaceOnUse" gradientTransform="matrix(226.91102,0,0,-197.943655,1044.57373,690.56236)"><stop offset="0" style="stop-color:#feffff;stop-opacity:1"/><stop offset="0.4" style="stop-color:#feffff;stop-opacity:1"/><stop offset="0.51" style="stop-color:#f9fcfc;stop-opacity:1"/><stop offset="0.62" style="stop-color:#edf3f5;stop-opacity:1"/><stop offset="0.7" style="stop-color:#dee9ec;stop-opacity:1"/><stop offset="0.72" style="stop-color:#d8e4e8;stop-opacity:1"/><stop offset="0.76" style="stop-color:#ccd8df;stop-opacity:1"/><stop offset="0.8" style="stop-color:#c8d5dd;stop-opacity:1"/><stop offset="0.83" style="stop-color:#ccd6de;stop-opacity:1"/><stop offset="0.85" style="stop-color:#d8dbe2;stop-opacity:1"/><stop offset="0.88" style="stop-color:#ede3e9;stop-opacity:1"/><stop offset="0.9" style="stop-color:#ffebef;stop-opacity:1"/><stop offset="1" style="stop-color:#ffebef;stop-opacity:1"/></radialGradient><radialGradient id="_Radial2" cx="0" cy="0" r="1" gradientUnits="userSpaceOnUse" gradientTransform="matrix(226.91102,0,0,-197.943655,494.849249,690.56236)"><stop offset="0" style="stop-color:#feffff;stop-opacity:1"/><stop offset="0.4" style="stop-color:#feffff;stop-opacity:1"/><stop offset="0.51" style="stop-color:#f9fcfc;stop-opacity:1"/><stop offset="0.62" style="stop-color:#edf3f5;stop-opacity:1"/><stop offset="0.7" style="stop-color:#dee9ec;stop-opacity:1"/><stop offset="0.72" style="stop-color:#d8e4e8;stop-opacity:1"/><stop offset="0.76" style="stop-color:#ccd8df;stop-opacity:1"/><stop offset="0.8" style="stop-color:#c8d5dd;stop-opacity:1"/><stop offset="0.83" style="stop-color:#ccd6de;stop-opacity:1"/><stop offset="0.85" style="stop-color:#d8dbe2;stop-opacity:1"/><stop offset="0.88" style="stop-color:#ede3e9;stop-opacity:1"/><stop offset="0.9" style="stop-color:#ffebef;stop-opacity:1"/><stop offset="1" style="stop-color:#ffebef;stop-opacity:1"/></radialGradient><radialGradient id="_Radial3" cx="0" cy="0" r="1" gradientUnits="userSpaceOnUse" gradientTransform="matrix(684.454079,0,0,-480.574141,776.891723,658.812261)"><stop offset="0" style="stop-color:#feffff;stop-opacity:1"/><stop offset="0.4" style="stop-color:#feffff;stop-opacity:1"/><stop offset="0.51" style="stop-color:#f9fcfc;stop-opacity:1"/><stop offset="0.62" style="stop-color:#edf3f5;stop-opacity:1"/><stop offset="0.7" style="stop-color:#dee9ec;stop-opacity:1"/><stop offset="0.72" style="stop-color:#d8e4e8;stop-opacity:1"/><stop offset="0.76" style="stop-color:#ccd8df;stop-opacity:1"/><stop offset="0.8" style="stop-color:#c8d5dd;stop-opacity:1"/><stop offset="0.83" style="stop-color:#ccd6de;stop-opacity:1"/><stop offset="0.85" style="stop-color:#d8dbe2;stop-opacity:1"/><stop offset="0.88" style="stop-color:#ede3e9;stop-opacity:1"/><stop offset="0.9" style="stop-color:#ffebef;stop-opacity:1"/><stop offset="1" style="stop-color:#ffebef;stop-opacity:1"/></radialGradient><radialGradient id="_Radial4" cx="0" cy="0" r="1" gradientUnits="userSpaceOnUse" gradientTransform="matrix(-57.186206,0,0,83.954217,909.218825,855.016939)"><stop offset="0" style="stop-color:#f60;stop-opacity:1"/><stop offset="0.5" style="stop-color:#ff4500;stop-opacity:1"/><stop offset="0.7" style="stop-color:#fc4301;stop-opacity:1"/><stop offset="0.82" style="stop-color:#f43f07;stop-opacity:1"/><stop offset="0.92" style="stop-color:#e53812;stop-opacity:1"/><stop offset="1" style="stop-color:#d4301f;stop-opacity:1"/></radialGradient><radialGradient id="_Radial5" cx="0" cy="0" r="1" gradientUnits="userSpaceOnUse" gradientTransform="matrix(57.186206,0,0,83.954217,624.774991,855.016939)"><stop offset="0" style="stop-color:#f60;stop-opacity:1"/><stop offset="0.5" style="stop-color:#ff4500;stop-opacity:1"/><stop offset="0.7" style="stop-color:#fc4301;stop-opacity:1"/><stop offset="0.82" style="stop-color:#f43f07;stop-opacity:1"/><stop offset="0.92" style="stop-color:#e53812;stop-opacity:1"/><stop offset="1" style="stop-color:#d4301f;stop-opacity:1"/></radialGradient><radialGradient id="_Radial6" cx="0" cy="0" r="1" gradientUnits="userSpaceOnUse" gradientTransform="matrix(201.647251,0,0,-133.001378,769.396271,1021.450929)"><stop offset="0" style="stop-color:#172e35;stop-opacity:1"/><stop offset="0.29" style="stop-color:#0e1c21;stop-opacity:1"/><stop offset="0.73" style="stop-color:#030708;stop-opacity:1"/><stop offset="1" style="stop-color:#000;stop-opacity:1"/></radialGradient><radialGradient id="_Radial7" cx="0" cy="0" r="1" gradientUnits="userSpaceOnUse" gradientTransform="matrix(177.006619,0,0,-177.006619,947.22187,412.323448)"><stop offset="0" style="stop-color:#feffff;stop-opacity:1"/><stop offset="0.4" style="stop-color:#feffff;stop-opacity:1"/><stop offset="0.51" style="stop-color:#f9fcfc;stop-opacity:1"/><stop offset="0.62" style="stop-color:#edf3f5;stop-opacity:1"/><stop offset="0.7" style="stop-color:#dee9ec;stop-opacity:1"/><stop offset="0.72" style="stop-color:#d8e4e8;stop-opacity:1"/><stop offset="0.76" style="stop-color:#ccd8df;stop-opacity:1"/><stop offset="0.8" style="stop-color:#c8d5dd;stop-opacity:1"/><stop offset="0.83" style="stop-color:#ccd6de;stop-opacity:1"/><stop offset="0.85" style="stop-color:#d8dbe2;stop-opacity:1"/><stop offset="0.88" style="stop-color:#ede3e9;stop-opacity:1"/><stop offset="0.9" style="stop-color:#ffebef;stop-opacity:1"/><stop offset="1" style="stop-color:#ffebef;stop-opacity:1"/></radialGradient><radialGradient id="_Radial8" cx="0" cy="0" r="1" gradientUnits="userSpaceOnUse" gradientTransform="matrix(145.084182,0,0,-145.084182,873.46021,605.286929)"><stop offset="0" style="stop-color:#7a9299;stop-opacity:1"/><stop offset="0.48" style="stop-color:#7a9299;stop-opacity:1"/><stop offset="0.67" style="stop-color:#172e35;stop-opacity:1"/><stop offset="0.75" style="stop-color:#000;stop-opacity:1"/><stop offset="0.82" style="stop-color:#172e35;stop-opacity:1"/><stop offset="1" style="stop-color:#172e35;stop-opacity:1"/></radialGradient></defs></svg>