<?xml version="1.0" encoding="UTF-8" standalone="no"?>
<!-- Created with Inkscape (http://www.inkscape.org/) -->

<svg
   width="1536"
   height="1536"
   viewBox="0 0 1536 1536"
   version="1.1"
   id="svg1"
   xmlns="http://www.w3.org/2000/svg"
   xmlns:svg="http://www.w3.org/2000/svg">
  <defs
     id="defs1" />
  <g
     id="layer1">
    <rect
       style="fill:#000000;stroke-width:3.17071"
       id="rect1"
       width="1536"
       height="1536"
       x="0"
       y="0" />
    <path
       d="m 774.9307,1215.1431 h -0.2683 C 641.2349,1214.249 538.6603,1170.2501 469.71079,1084.3985 408.45218,1007.937 376.79444,901.6064 375.7213,768.35773 v -0.626 C 376.79444,634.39364 408.45218,528.15242 469.80022,451.69094 538.6603,365.75002 641.3243,321.75114 774.6624,320.85685 h 0.2683 0.2683 c 102.3064,0.71543 187.8896,27.00745 254.335,78.16063 62.5107,48.1126 106.5095,116.61493 130.7447,203.71842 l -76.0143,21.19459 C 1043.1272,476.37324 939.0323,400.98491 774.8413,399.82233 c -108.3875,0.80486 -190.3936,34.87717 -243.693,101.23322 -49.81179,62.1529 -75.56723,151.93925 -76.55095,266.94447 0.98372,115.00522 26.73916,204.79157 76.64035,266.94448 53.2995,66.4455 135.3055,100.5178 243.693,101.2333 97.7455,-0.7155 162.4024,-23.5198 216.149,-76.1933 61.3481,-60.09603 60.2749,-133.87466 40.6006,-178.76783 -11.5363,-26.47088 -32.552,-48.47032 -60.9009,-65.19347 -7.1543,50.34832 -23.162,91.12777 -47.8443,121.89122 -32.9992,41.04775 -79.7703,63.49438 -138.9721,66.71378 -44.8037,2.4146 -87.9978,-8.13802 -121.4441,-29.86918 C 622.902,949.093 599.74,909.92326 597.236,864.31466 c -2.4146,-44.3566 15.2029,-85.13606 49.5435,-114.82637 32.8203,-28.34887 78.9655,-44.9826 133.5169,-48.1126 40.1535,-2.23572 77.8029,-0.44715 112.5013,5.27629 -4.6503,-27.63345 -13.9509,-49.63289 -27.9018,-65.46176 -19.1377,-21.82059 -48.7386,-32.90974 -87.9083,-33.17803 -0.3577,0 -0.7155,0 -1.0732,0 -31.4788,0 -74.2257,8.67458 -101.412,49.18575 l -65.4618,-43.90946 c 36.4869,-54.19375 95.6886,-84.06291 166.8738,-84.06291 0.5366,0 1.0732,0 1.6097,0 119.0296,0.71543 189.9465,73.59976 197.0113,200.76728 4.0243,1.69914 8.0486,3.48772 11.9835,5.27629 55.5351,26.11316 96.1357,65.64062 117.5092,114.37922 29.6903,67.87634 32.4626,178.49954 -57.6815,266.76564 -68.9495,67.4292 -152.5652,97.9244 -271.1476,98.7291 z m 37.3812,-435.60679 c -9.0323,0 -18.154,0.26829 -27.544,0.80486 -68.4129,3.84543 -111.0704,35.23488 -108.6558,79.85977 2.504,46.77118 54.1043,68.50234 103.7372,65.81948 45.6086,-2.41458 104.9892,-20.21088 115.0052,-138.25667 -25.2189,-5.45515 -52.8523,-8.22744 -82.5426,-8.22744 z"
       id="path1-3"
       style="clip-rule:evenodd;fill:#ffffff;fill-rule:evenodd;stroke-width:0.894286;stroke-linejoin:round;stroke-miterlimit:2" />
  </g>
</svg>
