<?xml version="1.0" encoding="UTF-8" standalone="no"?>
<!-- Created with Inkscape (http://www.inkscape.org/) -->

<svg
   width="1536"
   height="1536"
   viewBox="0 0 1536 1536.0001"
   version="1.1"
   id="svg1"
   xmlns="http://www.w3.org/2000/svg"
   xmlns:svg="http://www.w3.org/2000/svg">
  <defs
     id="defs1" />
  <g
     id="layer1">
    <rect
       x="4.9999999e-05"
       y="4.9999999e-05"
       width="1536"
       height="1536"
       style="clip-rule:evenodd;fill:#1d9bf0;fill-opacity:1;fill-rule:evenodd;stroke-linejoin:round;stroke-miterlimit:2"
       id="rect1" />
    <path
       fill="#1d9bf0"
       d="m 1033.6995,631.68581 c 0.4072,5.89086 0.4072,11.78172 0.4072,17.72687 0,181.15073 -137.9059,390.07262 -390.07265,390.07262 v -0.1085 c -74.49087,0.1085 -147.43437,-21.2288 -210.14353,-61.46039 10.83157,1.30305 21.71746,1.95456 32.63048,1.98171 61.73187,0.0543 121.69918,-20.65873 170.26485,-58.80001 -58.66428,-1.11301 -110.10751,-39.36288 -128.0787,-95.20389 20.55014,3.96342 41.72466,3.14903 61.89475,-2.36177 -63.95791,-12.9219 -109.97176,-69.11582 -109.97176,-134.37677 v -1.7374 c 19.05706,10.61441 40.39446,16.50527 62.22051,17.15679 -60.2388,-40.25873 -78.80722,-120.39615 -42.43049,-183.051 69.60445,85.64821 172.30087,137.71582 282.54411,143.22662 -11.04875,-47.61552 4.04487,-97.51138 39.6615,-130.98341 55.21663,-51.90472 142.05926,-49.24433 193.96406,5.94515 30.70307,-6.05374 60.13017,-17.31967 87.05987,-33.28199 -10.2344,31.73463 -31.6532,58.69142 -60.2659,75.82106 27.1739,-3.20332 53.7235,-10.47868 78.7258,-21.58172 -18.4056,27.58117 -41.5891,51.60611 -68.4101,71.01608 z"
       id="path1"
       style="fill:#ffffff;stroke-width:2.71468" />
  </g>
</svg>
