<?xml version="1.0" encoding="UTF-8" standalone="no"?>
<svg
   width="1536"
   height="1536"
   viewBox="0 0 1536 1536"
   version="1.1"
   xml:space="preserve"
   style="clip-rule:evenodd;fill-rule:evenodd;stroke-linejoin:round;stroke-miterlimit:2"
   id="svg7"
   xmlns="http://www.w3.org/2000/svg"
   xmlns:svg="http://www.w3.org/2000/svg"><rect
     x="2.6976406e-05"
     y="-1536"
     width="1536"
     height="1536"
     style="fill:#990000;fill-opacity:1"
     id="rect1"
     transform="scale(1,-1)" /><defs
     id="defs7" /><path
     d="M 1112.5364,475.13588 A 316.88518,316.88518 0 0 0 893.35251,405.80791 C 752.75521,414.8799 657.2566,505.1892 618.42994,647.76512 570.6433,602.06915 547.79532,526.87985 540.29131,440.93856 c -38.07998,8.02666 -61.89863,26.20798 -83.36528,46.18131 16.61332,86.46395 67.27463,149.89326 121.85593,192.56524 -95.53595,11.83466 -223.62656,91.16796 -252.78388,183.08258 -18.92798,59.65864 9.632,127.49328 47.89864,168.74651 46.18132,49.7653 139.99994,74.592 237.25323,65.4827 1.38133,13.5146 -3.88266,20.0106 -2.16533,33.8613 151.83462,-11.424 267.82915,-61.4506 374.82651,-145.37591 41.77597,-32.74131 99.26917,-76.04796 140.22387,-120.47461 41.104,-44.50131 85.7173,-96.24528 91.2053,-168.74657 7.8399,-104.15996 -46.144,-175.24259 -102.7039,-221.12523 z m -53.536,408.3518 c -38.64,37.37065 -83.66398,67.08797 -125.10397,99.86661 C 887.2672,909.173 837.4645,834.61837 788.78185,762.45308 c 0.63466,98.18661 0.22398,202.79456 1.49333,297.06122 -29.11996,14.2239 -66.78931,20.8319 -102.44261,28.4852 -72.23996,-108.9012 -148.13859,-223.62647 -222.5439,-332.56509 25.872,-16.688 60.74132,-29.30665 92.51198,-40.13332 52.97596,76.5333 101.88261,158.77859 155.71728,236.43188 0.70926,-116.21861 -0.33598,-249.1252 -2.2774,-370.30915 a 529.19975,529.19975 0 0 0 57.00796,-16.20266 c 67.68538,101.58396 132.64527,210.11191 203.98928,312.06919 A 20434.391,20434.391 0 0 1 971.5658,512.61852 c 32.0319,-10.52799 67.3119,-19.97332 99.6426,-30.20265 0.7466,130.62927 -12.6187,266.11188 -12.208,401.07181 z"
     id="path1"
     style="clip-rule:evenodd;fill:#ffffff;fill-rule:evenodd;stroke-width:37.3333;stroke-linejoin:round;stroke-miterlimit:2" /></svg>
